<svg width="640" height="360" viewBox="0 0 640 360" fill="none" xmlns="http://www.w3.org/2000/svg">
  <!-- Background -->
  <rect width="640" height="360" fill="#0f1419"/>

  <!-- Gradient overlay -->
  <defs>
    <linearGradient id="videoGrad2" x1="0%" y1="100%" x2="100%" y2="0%">
      <stop offset="0%" style="stop-color:#0a0a0a;stop-opacity:1" />
      <stop offset="50%" style="stop-color:#1a2530;stop-opacity:1" />
      <stop offset="100%" style="stop-color:#0f1419;stop-opacity:1" />
    </linearGradient>
    <radialGradient id="glow" cx="30%" cy="40%">
      <stop offset="0%" style="stop-color:#FFD700;stop-opacity:0.2" />
      <stop offset="100%" style="stop-color:#000000;stop-opacity:0" />
    </radialGradient>
  </defs>
  <rect width="640" height="360" fill="url(#videoGrad2)"/>
  <ellipse cx="200" cy="150" rx="180" ry="120" fill="url(#glow)"/>

  <!-- Wrist with watch (review style) -->
  <ellipse cx="280" cy="200" rx="100" ry="40" fill="#2a2a2a" opacity="0.6"/>

  <!-- Elegant watch -->
  <circle cx="280" cy="180" r="55" fill="#D4AF37" opacity="0.3"/>
  <circle cx="280" cy="180" r="45" fill="#0a0a0a" stroke="#D4AF37" stroke-width="3"/>
  <circle cx="280" cy="180" r="35" fill="#1a1410"/>

  <!-- Roman numerals -->
  <text x="280" y="155" font-family="serif" font-size="8" fill="#D4AF37" text-anchor="middle">XII</text>
  <text x="300" y="183" font-family="serif" font-size="8" fill="#D4AF37" text-anchor="middle">III</text>
  <text x="280" y="205" font-family="serif" font-size="8" fill="#D4AF37" text-anchor="middle">VI</text>
  <text x="260" y="183" font-family="serif" font-size="8" fill="#D4AF37" text-anchor="middle">IX</text>

  <!-- Watch hands -->
  <line x1="280" y1="180" x2="280" y2="165" stroke="#FFD700" stroke-width="2" stroke-linecap="round"/>
  <line x1="280" y1="180" x2="292" y2="175" stroke="#FFD700" stroke-width="1.5" stroke-linecap="round"/>
  <circle cx="280" cy="180" r="3" fill="#FFD700"/>

  <!-- Leather band -->
  <rect x="245" y="172" width="70" height="16" rx="2" fill="#3a2a1a"/>

  <!-- Video info panel -->
  <rect x="20" y="250" width="450" height="90" rx="10" fill="#000000" opacity="0.8"/>

  <!-- Profile pic -->
  <circle cx="50" cy="280" r="20" fill="#D4AF37"/>
  <text x="50" y="286" font-family="Arial, sans-serif" font-size="14" fill="#0a0a0a" text-anchor="middle" font-weight="bold">A</text>

  <text x="85" y="275" font-family="Arial, sans-serif" font-size="16" fill="#FFFFFF" font-weight="bold">
    AVIS après 2 mois d'utilisation
  </text>
  <text x="85" y="295" font-family="Arial, sans-serif" font-size="13" fill="#D4AF37">
    Collection Élégance Classique
  </text>
  <text x="85" y="315" font-family="Arial, sans-serif" font-size="12" fill="#CCCCCC">
    "Qualité exceptionnelle, je ne la quitte plus ! ⭐⭐⭐⭐⭐"
  </text>

  <!-- Stats -->
  <text x="30" y="335" font-family="Arial, sans-serif" font-size="11" fill="#999999">
    ❤️ 856 · 💬 42 · 📤 128
  </text>

  <!-- Play button (larger) -->
  <circle cx="520" cy="180" r="50" fill="#D4AF37"/>
  <circle cx="520" cy="180" r="46" fill="#000000" opacity="0.4"/>
  <path d="M 508 165 L 508 195 L 538 180 Z" fill="#FFFFFF"/>

  <!-- Duration badge -->
  <rect x="560" y="20" width="60" height="26" rx="4" fill="#000000" opacity="0.9"/>
  <text x="590" y="38" font-family="monospace" font-size="14" fill="#FFFFFF" text-anchor="middle">5:18</text>

  <!-- Verified badge -->
  <rect x="20" y="20" width="110" height="26" rx="13" fill="#D4AF37" opacity="0.9"/>
  <text x="35" y="38" font-family="Arial, sans-serif" font-size="13" fill="#0a0a0a" font-weight="bold">✓ VÉRIFIÉ</text>

  <!-- Decorative sparkles -->
  <circle cx="450" cy="80" r="2" fill="#FFD700" opacity="0.6"/>
  <circle cx="470" cy="95" r="1.5" fill="#D4AF37" opacity="0.5"/>
  <circle cx="490" cy="75" r="2.5" fill="#FFD700" opacity="0.7"/>
</svg>
